<svg xmlns="http://www.w3.org/2000/svg" style="display:none"><symbol id="sd-home" viewBox="0 0 24 24" fill="none" stroke="currentColor" stroke-width="1.75" stroke-linecap="round" stroke-linejoin="round"><path d="M3 11.5 12 4l9 7.5"/><path d="M5 10.5V20h5v-6h4v6h5v-9.5"/></symbol><symbol id="sd-workspace" viewBox="0 0 24 24" fill="none" stroke="currentColor" stroke-width="1.75" stroke-linecap="round" stroke-linejoin="round"><rect x="3" y="5" width="18" height="15" rx="2"/><path d="M8 5V3h8v2M8 11h8M8 15h5"/></symbol><symbol id="sd-runs" viewBox="0 0 24 24" fill="none" stroke="currentColor" stroke-width="1.75" stroke-linecap="round" stroke-linejoin="round"><path d="M3 12a9 9 0 1 0 3-6.7"/><path d="M3 4v5h5M12 7v5l3 2"/></symbol><symbol id="sd-inbox" viewBox="0 0 24 24" fill="none" stroke="currentColor" stroke-width="1.75" stroke-linecap="round" stroke-linejoin="round"><path d="M4 5h16l-2 14H6L4 5Z"/><path d="M5 14h4l1.5 2h3l1.5-2h4"/></symbol><symbol id="sd-library" viewBox="0 0 24 24" fill="none" stroke="currentColor" stroke-width="1.75" stroke-linecap="round" stroke-linejoin="round"><rect x="4" y="4" width="4" height="16" rx="1"/><rect x="10" y="4" width="4" height="16" rx="1"/><path d="m16 5 4-1v16l-4 1V5Z"/></symbol><symbol id="sd-watchlist" viewBox="0 0 24 24" fill="none" stroke="currentColor" stroke-width="1.75" stroke-linecap="round" stroke-linejoin="round"><path d="M20.8 5.8a5 5 0 0 0-7.1 0L12 7.5l-1.7-1.7a5 5 0 1 0-7.1 7.1L12 21l8.8-8.1a5 5 0 0 0 0-7.1Z"/></symbol><symbol id="sd-monitor" viewBox="0 0 24 24" fill="none" stroke="currentColor" stroke-width="1.75" stroke-linecap="round" stroke-linejoin="round"><circle cx="12" cy="12" r="8"/><circle cx="12" cy="12" r="3"/><path d="M12 2v3M12 19v3M2 12h3M19 12h3"/></symbol><symbol id="sd-settings" viewBox="0 0 24 24" fill="none" stroke="currentColor" stroke-width="1.75" stroke-linecap="round" stroke-linejoin="round"><circle cx="12" cy="12" r="3"/><path d="M19.4 15a1.7 1.7 0 0 0 .3 1.9l.1.1-2.8 2.8-.1-.1a1.7 1.7 0 0 0-1.9-.3 1.7 1.7 0 0 0-1 1.6v.2H10V21a1.7 1.7 0 0 0-1-1.6 1.7 1.7 0 0 0-1.9.3l-.1.1L4.2 17l.1-.1a1.7 1.7 0 0 0 .3-1.9A1.7 1.7 0 0 0 3 14H2.8v-4H3a1.7 1.7 0 0 0 1.6-1 1.7 1.7 0 0 0-.3-1.9l-.1-.1L7 4.2l.1.1a1.7 1.7 0 0 0 1.9.3A1.7 1.7 0 0 0 10 3V2.8h4V3a1.7 1.7 0 0 0 1 1.6 1.7 1.7 0 0 0 1.9-.3l.1-.1L19.8 7l-.1.1a1.7 1.7 0 0 0-.3 1.9 1.7 1.7 0 0 0 1.6 1h.2v4H21a1.7 1.7 0 0 0-1.6 1Z"/></symbol><symbol id="sd-search" viewBox="0 0 24 24" fill="none" stroke="currentColor" stroke-width="1.75" stroke-linecap="round" stroke-linejoin="round"><circle cx="11" cy="11" r="7"/><path d="m20 20-4-4"/></symbol><symbol id="sd-bell" viewBox="0 0 24 24" fill="none" stroke="currentColor" stroke-width="1.75" stroke-linecap="round" stroke-linejoin="round"><path d="M18 8a6 6 0 0 0-12 0c0 7-3 7-3 9h18c0-2-3-2-3-9"/><path d="M10 21h4"/></symbol><symbol id="sd-help" viewBox="0 0 24 24" fill="none" stroke="currentColor" stroke-width="1.75" stroke-linecap="round" stroke-linejoin="round"><circle cx="12" cy="12" r="9"/><path d="M9.7 9a2.5 2.5 0 0 1 4.8 1c0 2-2.5 2.2-2.5 4M12 17h.01"/></symbol><symbol id="sd-user" viewBox="0 0 24 24" fill="none" stroke="currentColor" stroke-width="1.75" stroke-linecap="round" stroke-linejoin="round"><circle cx="12" cy="8" r="4"/><path d="M4 21a8 8 0 0 1 16 0"/></symbol><symbol id="sd-plus" viewBox="0 0 24 24" fill="none" stroke="currentColor" stroke-width="1.75" stroke-linecap="round" stroke-linejoin="round"><path d="M12 5v14M5 12h14"/></symbol><symbol id="sd-play" viewBox="0 0 24 24" fill="none" stroke="currentColor" stroke-width="1.75" stroke-linecap="round" stroke-linejoin="round"><path d="m8 5 11 7-11 7V5Z"/></symbol><symbol id="sd-save" viewBox="0 0 24 24" fill="none" stroke="currentColor" stroke-width="1.75" stroke-linecap="round" stroke-linejoin="round"><path d="M5 3h12l2 2v16H5V3Z"/><path d="M8 3v6h8V3M8 21v-7h8v7"/></symbol><symbol id="sd-filter" viewBox="0 0 24 24" fill="none" stroke="currentColor" stroke-width="1.75" stroke-linecap="round" stroke-linejoin="round"><path d="M4 5h16l-6 7v6l-4 2v-8L4 5Z"/></symbol><symbol id="sd-export" viewBox="0 0 24 24" fill="none" stroke="currentColor" stroke-width="1.75" stroke-linecap="round" stroke-linejoin="round"><path d="M12 3v12M8 7l4-4 4 4"/><path d="M5 13v7h14v-7"/></symbol><symbol id="sd-download" viewBox="0 0 24 24" fill="none" stroke="currentColor" stroke-width="1.75" stroke-linecap="round" stroke-linejoin="round"><path d="M12 3v12M8 11l4 4 4-4"/><path d="M5 20h14"/></symbol><symbol id="sd-copy" viewBox="0 0 24 24" fill="none" stroke="currentColor" stroke-width="1.75" stroke-linecap="round" stroke-linejoin="round"><rect x="8" y="8" width="11" height="11" rx="2"/><path d="M16 8V5a2 2 0 0 0-2-2H5a2 2 0 0 0-2 2v9a2 2 0 0 0 2 2h3"/></symbol><symbol id="sd-share" viewBox="0 0 24 24" fill="none" stroke="currentColor" stroke-width="1.75" stroke-linecap="round" stroke-linejoin="round"><circle cx="18" cy="5" r="2"/><circle cx="6" cy="12" r="2"/><circle cx="18" cy="19" r="2"/><path d="m8 11 8-5M8 13l8 5"/></symbol><symbol id="sd-more" viewBox="0 0 24 24" fill="none" stroke="currentColor" stroke-width="1.75" stroke-linecap="round" stroke-linejoin="round"><circle cx="5" cy="12" r="1" fill="currentColor" stroke="none"/><circle cx="12" cy="12" r="1" fill="currentColor" stroke="none"/><circle cx="19" cy="12" r="1" fill="currentColor" stroke="none"/></symbol><symbol id="sd-close" viewBox="0 0 24 24" fill="none" stroke="currentColor" stroke-width="1.75" stroke-linecap="round" stroke-linejoin="round"><path d="M5 5l14 14M19 5 5 19"/></symbol><symbol id="sd-edit" viewBox="0 0 24 24" fill="none" stroke="currentColor" stroke-width="1.75" stroke-linecap="round" stroke-linejoin="round"><path d="M4 20h4l11-11-4-4L4 16v4Z"/><path d="m13.5 6.5 4 4"/></symbol><symbol id="sd-retry" viewBox="0 0 24 24" fill="none" stroke="currentColor" stroke-width="1.75" stroke-linecap="round" stroke-linejoin="round"><path d="M20 11a8 8 0 1 0-2.3 5.7"/><path d="M20 4v7h-7"/></symbol><symbol id="sd-fork" viewBox="0 0 24 24" fill="none" stroke="currentColor" stroke-width="1.75" stroke-linecap="round" stroke-linejoin="round"><circle cx="6" cy="5" r="2"/><circle cx="18" cy="5" r="2"/><circle cx="12" cy="19" r="2"/><path d="M6 7v3a3 3 0 0 0 3 3h3M18 7v3a3 3 0 0 1-3 3h-3M12 13v4"/></symbol><symbol id="sd-refresh" viewBox="0 0 24 24" fill="none" stroke="currentColor" stroke-width="1.75" stroke-linecap="round" stroke-linejoin="round"><path d="M20 6v5h-5M4 18v-5h5"/><path d="M18.4 9A7 7 0 0 0 6 6.3L4 8M5.6 15A7 7 0 0 0 18 17.7l2-1.7"/></symbol><symbol id="sd-eye" viewBox="0 0 24 24" fill="none" stroke="currentColor" stroke-width="1.75" stroke-linecap="round" stroke-linejoin="round"><path d="M2.5 12s3.5-6 9.5-6 9.5 6 9.5 6-3.5 6-9.5 6S2.5 12 2.5 12Z"/><circle cx="12" cy="12" r="2.5"/></symbol><symbol id="sd-arrow-right" viewBox="0 0 24 24" fill="none" stroke="currentColor" stroke-width="1.75" stroke-linecap="round" stroke-linejoin="round"><path d="M5 12h14M14 7l5 5-5 5"/></symbol><symbol id="sd-chevron-right" viewBox="0 0 24 24" fill="none" stroke="currentColor" stroke-width="1.75" stroke-linecap="round" stroke-linejoin="round"><path d="m9 5 7 7-7 7"/></symbol><symbol id="sd-chevron-down" viewBox="0 0 24 24" fill="none" stroke="currentColor" stroke-width="1.75" stroke-linecap="round" stroke-linejoin="round"><path d="m5 9 7 7 7-7"/></symbol><symbol id="sd-external-link" viewBox="0 0 24 24" fill="none" stroke="currentColor" stroke-width="1.75" stroke-linecap="round" stroke-linejoin="round"><path d="M14 4h6v6M20 4l-9 9"/><path d="M18 13v7H4V6h7"/></symbol><symbol id="sd-calendar" viewBox="0 0 24 24" fill="none" stroke="currentColor" stroke-width="1.75" stroke-linecap="round" stroke-linejoin="round"><rect x="3" y="5" width="18" height="16" rx="2"/><path d="M7 3v4M17 3v4M3 10h18"/></symbol><symbol id="sd-tag" viewBox="0 0 24 24" fill="none" stroke="currentColor" stroke-width="1.75" stroke-linecap="round" stroke-linejoin="round"><path d="M20 13 13 20l-9-9V4h7l9 9Z"/><circle cx="8.5" cy="8.5" r="1"/></symbol><symbol id="sd-grid" viewBox="0 0 24 24" fill="none" stroke="currentColor" stroke-width="1.75" stroke-linecap="round" stroke-linejoin="round"><rect x="3" y="3" width="7" height="7" rx="1"/><rect x="14" y="3" width="7" height="7" rx="1"/><rect x="3" y="14" width="7" height="7" rx="1"/><rect x="14" y="14" width="7" height="7" rx="1"/></symbol><symbol id="sd-list" viewBox="0 0 24 24" fill="none" stroke="currentColor" stroke-width="1.75" stroke-linecap="round" stroke-linejoin="round"><path d="M8 6h13M8 12h13M8 18h13"/><circle cx="3.5" cy="6" r=".8" fill="currentColor" stroke="none"/><circle cx="3.5" cy="12" r=".8" fill="currentColor" stroke="none"/><circle cx="3.5" cy="18" r=".8" fill="currentColor" stroke="none"/></symbol><symbol id="sd-lock" viewBox="0 0 24 24" fill="none" stroke="currentColor" stroke-width="1.75" stroke-linecap="round" stroke-linejoin="round"><rect x="5" y="10" width="14" height="11" rx="2"/><path d="M8 10V7a4 4 0 0 1 8 0v3"/></symbol><symbol id="sd-key" viewBox="0 0 24 24" fill="none" stroke="currentColor" stroke-width="1.75" stroke-linecap="round" stroke-linejoin="round"><circle cx="8" cy="15" r="4"/><path d="m11 12 8-8M16 7l2 2M14 9l2 2"/></symbol><symbol id="sd-market-chart" viewBox="0 0 24 24" fill="none" stroke="currentColor" stroke-width="1.75" stroke-linecap="round" stroke-linejoin="round"><path d="M3 20V5M3 20h18"/><path d="m6 16 4-5 3 3 5-7"/><path d="M18 7h-4M18 7v4"/></symbol><symbol id="sd-evidence-globe" viewBox="0 0 24 24" fill="none" stroke="currentColor" stroke-width="1.75" stroke-linecap="round" stroke-linejoin="round"><circle cx="12" cy="12" r="9"/><path d="M3 12h18M12 3a15 15 0 0 1 0 18M12 3a15 15 0 0 0 0 18"/></symbol><symbol id="sd-evidence-gate" viewBox="0 0 24 24" fill="none" stroke="currentColor" stroke-width="1.75" stroke-linecap="round" stroke-linejoin="round"><path d="M4 5h16l-6 7v6l-4 2v-8L4 5Z"/><path d="m15 17 2 2 4-4"/></symbol><symbol id="sd-risk-shield" viewBox="0 0 24 24" fill="none" stroke="currentColor" stroke-width="1.75" stroke-linecap="round" stroke-linejoin="round"><path d="M12 3 20 6v6c0 5-3.5 8-8 9-4.5-1-8-4-8-9V6l8-3Z"/><path d="m8.5 12 2.3 2.3 4.8-5"/></symbol><symbol id="sd-human-review" viewBox="0 0 24 24" fill="none" stroke="currentColor" stroke-width="1.75" stroke-linecap="round" stroke-linejoin="round"><circle cx="9" cy="8" r="3.5"/><path d="M3.5 20a6 6 0 0 1 11 0M15 13l2 2 4-4"/></symbol><symbol id="sd-audit-log" viewBox="0 0 24 24" fill="none" stroke="currentColor" stroke-width="1.75" stroke-linecap="round" stroke-linejoin="round"><path d="M6 3h9l3 3v15H6V3Z"/><path d="M14 3v4h4M9 11h6M9 15h3"/><circle cx="17" cy="17" r="3"/><path d="M17 15.5V17l1 1"/></symbol><symbol id="sd-report" viewBox="0 0 24 24" fill="none" stroke="currentColor" stroke-width="1.75" stroke-linecap="round" stroke-linejoin="round"><path d="M6 3h9l3 3v15H6V3Z"/><path d="M14 3v4h4M9 11h6M9 15h6M9 19h4"/></symbol><symbol id="sd-data-lineage" viewBox="0 0 24 24" fill="none" stroke="currentColor" stroke-width="1.75" stroke-linecap="round" stroke-linejoin="round"><circle cx="4" cy="12" r="2"/><circle cx="12" cy="5" r="2"/><circle cx="12" cy="19" r="2"/><circle cx="20" cy="12" r="2"/><path d="M6 12h12M10.5 6.5 5.5 10M10.5 17.5 5.5 14M13.5 6.5l5 3.5M13.5 17.5l5-3.5"/></symbol><symbol id="sd-web-source" viewBox="0 0 24 24" fill="none" stroke="currentColor" stroke-width="1.75" stroke-linecap="round" stroke-linejoin="round"><circle cx="10" cy="12" r="7"/><path d="M3 12h14M10 5a12 12 0 0 1 0 14M10 5a12 12 0 0 0 0 14"/><path d="M16 8h5v5M21 8l-6 6"/></symbol><symbol id="sd-checkpoint" viewBox="0 0 24 24" fill="none" stroke="currentColor" stroke-width="1.75" stroke-linecap="round" stroke-linejoin="round"><path d="M5 21V4"/><path d="M5 5h11l-2 4 2 4H5"/><circle cx="5" cy="21" r="1" fill="currentColor" stroke="none"/></symbol><symbol id="sd-alert" viewBox="0 0 24 24" fill="none" stroke="currentColor" stroke-width="1.75" stroke-linecap="round" stroke-linejoin="round"><path d="M12 3 22 21H2L12 3Z"/><path d="M12 9v5M12 18h.01"/></symbol><symbol id="sd-success" viewBox="0 0 24 24" fill="none" stroke="currentColor" stroke-width="1.75" stroke-linecap="round" stroke-linejoin="round"><circle cx="12" cy="12" r="9"/><path d="m8 12 2.5 2.5L16.5 8"/></symbol><symbol id="sd-warning" viewBox="0 0 24 24" fill="none" stroke="currentColor" stroke-width="1.75" stroke-linecap="round" stroke-linejoin="round"><path d="M12 3 22 21H2L12 3Z"/><path d="M12 9v5M12 18h.01"/></symbol><symbol id="sd-error" viewBox="0 0 24 24" fill="none" stroke="currentColor" stroke-width="1.75" stroke-linecap="round" stroke-linejoin="round"><path d="m8 3-5 5v8l5 5h8l5-5V8l-5-5H8Z"/><path d="m9 9 6 6M15 9l-6 6"/></symbol><symbol id="sd-pending" viewBox="0 0 24 24" fill="none" stroke="currentColor" stroke-width="1.75" stroke-linecap="round" stroke-linejoin="round"><circle cx="12" cy="12" r="9"/><path d="M12 7v5l3 2"/></symbol><symbol id="sd-blocked" viewBox="0 0 24 24" fill="none" stroke="currentColor" stroke-width="1.75" stroke-linecap="round" stroke-linejoin="round"><circle cx="12" cy="12" r="9"/><path d="m6 6 12 12"/></symbol><symbol id="sd-info" viewBox="0 0 24 24" fill="none" stroke="currentColor" stroke-width="1.75" stroke-linecap="round" stroke-linejoin="round"><circle cx="12" cy="12" r="9"/><path d="M12 11v6M12 7h.01"/></symbol><symbol id="sd-bitcoin" viewBox="0 0 24 24" fill="none" stroke="currentColor" stroke-width="1.75" stroke-linecap="round" stroke-linejoin="round"><circle cx="12" cy="12" r="9"/><path d="M9 7h5a2.5 2.5 0 0 1 0 5H9m0 0h5.5a2.5 2.5 0 0 1 0 5H9M11 5v14M14 5v2M14 17v2"/></symbol><symbol id="sd-ethereum" viewBox="0 0 24 24" fill="none" stroke="currentColor" stroke-width="1.75" stroke-linecap="round" stroke-linejoin="round"><path d="m12 3-6 9 6 3 6-3-6-9Z"/><path d="m6 13 6 8 6-8-6 3-6-3Z"/></symbol><symbol id="sd-solana" viewBox="0 0 24 24" fill="none" stroke="currentColor" stroke-width="1.75" stroke-linecap="round" stroke-linejoin="round"><path d="M7 5h12l-3 3H4l3-3ZM5 10h12l3 3H8l-3-3ZM7 15h12l-3 3H4l3-3Z"/></symbol></svg>